<svg width="230" height="25" viewBox="0 0 230 25" fill="none" xmlns="http://www.w3.org/2000/svg">
<path d="M10.008 24.384C7 24.384 4.70667 23.7013 3.128 22.336C1.54933 20.9493 0.76 18.912 0.76 16.224V9.376C0.76 6.688 1.54933 4.66133 3.128 3.296C4.70667 1.90933 7 1.216 10.008 1.216C12.0987 1.216 13.8053 1.568 15.128 2.272C16.472 2.95467 17.5387 3.98933 18.328 5.376L15.096 7.616C14.4347 6.592 13.7413 5.856 13.016 5.408C12.312 4.96 11.3093 4.736 10.008 4.736C8.36533 4.736 7.16 5.13067 6.392 5.92C5.64533 6.688 5.272 7.84 5.272 9.376V16.224C5.272 17.76 5.64533 18.9227 6.392 19.712C7.16 20.48 8.36533 20.864 10.008 20.864C11.416 20.864 12.504 20.6293 13.272 20.16C14.0613 19.6693 14.7653 18.8907 15.384 17.824L18.584 20.192C17.9013 21.1733 17.1973 21.9627 16.472 22.56C15.7467 23.1573 14.8613 23.616 13.816 23.936C12.792 24.2347 11.5227 24.384 10.008 24.384ZM27.4145 24.384C25.1958 24.384 23.4892 23.872 22.2945 22.848C21.0998 21.824 20.5025 20.3627 20.5025 18.464V14.496C20.5025 12.5973 21.0998 11.136 22.2945 10.112C23.4892 9.088 25.1958 8.576 27.4145 8.576C29.6332 8.576 31.3398 9.088 32.5345 10.112C33.7292 11.136 34.3265 12.5973 34.3265 14.496V18.464C34.3265 20.3627 33.7292 21.824 32.5345 22.848C31.3398 23.872 29.6332 24.384 27.4145 24.384ZM27.4145 21.184C28.2892 21.184 28.9612 20.9493 29.4305 20.48C29.9212 20.0107 30.1665 19.3387 30.1665 18.464V14.496C30.1665 13.6213 29.9212 12.9493 29.4305 12.48C28.9612 12.0107 28.2892 11.776 27.4145 11.776C26.5398 11.776 25.8572 12.0107 25.3665 12.48C24.8972 12.9493 24.6625 13.6213 24.6625 14.496V18.464C24.6625 19.3387 24.8972 20.0107 25.3665 20.48C25.8572 20.9493 26.5398 21.184 27.4145 21.184ZM44.1333 24.384C41.9146 24.384 40.2079 23.872 39.0133 22.848C37.8186 21.824 37.2213 20.3627 37.2213 18.464V14.496C37.2213 12.5973 37.8186 11.136 39.0133 10.112C40.2079 9.088 41.9146 8.576 44.1333 8.576C46.3519 8.576 48.0586 9.088 49.2533 10.112C50.4479 11.136 51.0453 12.5973 51.0453 14.496V18.464C51.0453 20.3627 50.4479 21.824 49.2533 22.848C48.0586 23.872 46.3519 24.384 44.1333 24.384ZM44.1333 21.184C45.0079 21.184 45.6799 20.9493 46.1493 20.48C46.6399 20.0107 46.8853 19.3387 46.8853 18.464V14.496C46.8853 13.6213 46.6399 12.9493 46.1493 12.48C45.6799 12.0107 45.0079 11.776 44.1333 11.776C43.2586 11.776 42.5759 12.0107 42.0853 12.48C41.6159 12.9493 41.3813 13.6213 41.3813 14.496V18.464C41.3813 19.3387 41.6159 20.0107 42.0853 20.48C42.5759 20.9493 43.2586 21.184 44.1333 21.184ZM57.5918 24.384C56.5038 23.8293 55.7464 23.2 55.3198 22.496C54.8931 21.7707 54.6798 20.768 54.6798 19.488V5.024C54.6798 4.448 54.5624 3.97867 54.3278 3.616C54.1144 3.25333 53.7198 2.85867 53.1438 2.432L55.9278 -1.90735e-06C57.0158 0.554665 57.7731 1.19467 58.1998 1.92C58.6264 2.624 58.8398 3.616 58.8398 4.896V19.36C58.8398 19.936 58.9464 20.4053 59.1598 20.768C59.3944 21.1307 59.7998 21.5253 60.3758 21.952L57.5918 24.384ZM72.1955 24.384C69.1875 24.384 66.8942 23.7013 65.3155 22.336C63.7368 20.9493 62.9475 18.912 62.9475 16.224V9.376C62.9475 6.688 63.7368 4.66133 65.3155 3.296C66.8942 1.90933 69.1875 1.216 72.1955 1.216C74.2862 1.216 75.9928 1.568 77.3155 2.272C78.6595 2.95467 79.7262 3.98933 80.5155 5.376L77.2835 7.616C76.6222 6.592 75.9288 5.856 75.2035 5.408C74.4995 4.96 73.4968 4.736 72.1955 4.736C70.5528 4.736 69.3475 5.13067 68.5795 5.92C67.8328 6.688 67.4595 7.84 67.4595 9.376V16.224C67.4595 17.76 67.8328 18.9227 68.5795 19.712C69.3475 20.48 70.5528 20.864 72.1955 20.864C73.6035 20.864 74.6915 20.6293 75.4595 20.16C76.2488 19.6693 76.9528 18.8907 77.5715 17.824L80.7715 20.192C80.0888 21.1733 79.3848 21.9627 78.6595 22.56C77.9342 23.1573 77.0488 23.616 76.0035 23.936C74.9795 24.2347 73.7102 24.384 72.1955 24.384ZM86.8105 24.384C85.7225 23.8293 84.9652 23.2 84.5385 22.496C84.1118 21.7707 83.8985 20.768 83.8985 19.488V5.024C83.8985 4.448 83.7812 3.97867 83.5465 3.616C83.3332 3.25333 82.9385 2.85867 82.3625 2.432L85.1465 -1.90735e-06C86.2345 0.554665 86.9918 1.19467 87.4185 1.92C87.8452 2.624 88.0585 3.616 88.0585 4.896V19.36C88.0585 19.936 88.1652 20.4053 88.3785 20.768C88.6132 21.1307 89.0185 21.5253 89.5945 21.952L86.8105 24.384ZM98.7583 24.384C96.5396 24.384 94.8329 23.872 93.6383 22.848C92.4436 21.824 91.8463 20.3627 91.8463 18.464V14.496C91.8463 12.5973 92.4436 11.136 93.6383 10.112C94.8329 9.088 96.5396 8.576 98.7583 8.576C100.977 8.576 102.684 9.088 103.878 10.112C105.073 11.136 105.67 12.5973 105.67 14.496V18.464C105.67 20.3627 105.073 21.824 103.878 22.848C102.684 23.872 100.977 24.384 98.7583 24.384ZM98.7583 21.184C99.6329 21.184 100.305 20.9493 100.774 20.48C101.265 20.0107 101.51 19.3387 101.51 18.464V14.496C101.51 13.6213 101.265 12.9493 100.774 12.48C100.305 12.0107 99.6329 11.776 98.7583 11.776C97.8836 11.776 97.2009 12.0107 96.7103 12.48C96.2409 12.9493 96.0063 13.6213 96.0063 14.496V18.464C96.0063 19.3387 96.2409 20.0107 96.7103 20.48C97.2009 20.9493 97.8836 21.184 98.7583 21.184ZM113.461 12.16V18.368C113.461 19.264 113.6 19.8933 113.877 20.256C114.154 20.6187 114.624 20.8 115.285 20.8H117.813V24H115.285C113.792 24 112.608 23.8187 111.733 23.456C110.88 23.0933 110.261 22.5067 109.877 21.696C109.493 20.8853 109.301 19.776 109.301 18.368V6.624C109.301 6.048 109.184 5.57867 108.949 5.216C108.736 4.85333 108.341 4.45867 107.765 4.032L110.549 1.6C111.637 2.15467 112.394 2.79467 112.821 3.52C113.248 4.224 113.461 5.216 113.461 6.496V8.96H117.813V12.16H113.461ZM129.533 8.576C131.176 8.576 132.435 9.024 133.309 9.92C134.205 10.816 134.653 12.096 134.653 13.76V24H130.493V14.144C130.493 13.4187 130.291 12.8427 129.885 12.416C129.501 11.9893 128.979 11.776 128.317 11.776C126.909 11.776 125.896 12.608 125.277 14.272V24H121.117V5.024C121.117 4.448 121 3.97867 120.765 3.616C120.552 3.25333 120.157 2.85867 119.581 2.432L122.365 -1.90735e-06C123.453 0.554665 124.211 1.19467 124.637 1.92C125.064 2.624 125.277 3.616 125.277 4.896V10.464C126.259 9.20533 127.677 8.576 129.533 8.576ZM144.947 21.248C145.736 21.248 146.376 21.152 146.867 20.96C147.357 20.7467 147.891 20.384 148.467 19.872L150.931 22.112C149.693 23.6267 147.699 24.384 144.947 24.384C142.493 24.384 140.723 23.9253 139.635 23.008C138.547 22.0693 138.003 20.5547 138.003 18.464V13.888C138.003 12.2453 138.589 10.9547 139.763 10.016C140.957 9.056 142.579 8.576 144.627 8.576C146.739 8.576 148.392 9.088 149.587 10.112C150.781 11.1147 151.379 12.5867 151.379 14.528C151.379 15.4667 151.293 16.192 151.123 16.704C150.973 17.216 150.664 17.6 150.195 17.856C149.725 18.0907 149.043 18.208 148.147 18.208H142.131V18.496C142.131 20.3307 143.069 21.248 144.947 21.248ZM144.627 11.712C143.837 11.712 143.219 11.9467 142.771 12.416C142.344 12.864 142.131 13.4613 142.131 14.208V15.36H145.779C146.333 15.36 146.717 15.2747 146.931 15.104C147.144 14.9333 147.251 14.6347 147.251 14.208C147.251 13.3973 147.027 12.7787 146.579 12.352C146.131 11.9253 145.48 11.712 144.627 11.712ZM159.352 24.384C158.157 24.384 157.186 24.2667 156.44 24.032C155.693 23.8187 155.096 23.52 154.648 23.136C154.2 22.752 153.73 22.2293 153.24 21.568L155.832 19.36C156.386 20.0427 156.898 20.5227 157.368 20.8C157.858 21.056 158.52 21.184 159.352 21.184C160.269 21.184 160.93 21.0773 161.336 20.864C161.762 20.6293 161.976 20.2667 161.976 19.776C161.976 19.3067 161.709 18.944 161.176 18.688C160.664 18.432 159.65 18.176 158.136 17.92C155.149 17.344 153.656 15.7227 153.656 13.056C153.656 11.6907 154.2 10.6027 155.288 9.792C156.376 8.98133 157.826 8.576 159.64 8.576C161.154 8.576 162.349 8.8 163.224 9.248C164.12 9.67467 164.845 10.304 165.4 11.136L162.84 13.312C162.285 12.7573 161.784 12.3627 161.336 12.128C160.888 11.8933 160.322 11.776 159.64 11.776C158.274 11.776 157.592 12.256 157.592 13.216C157.592 13.664 157.816 14.0053 158.264 14.24C158.733 14.4747 159.32 14.656 160.024 14.784C161.346 15.0827 162.392 15.392 163.16 15.712C163.949 16.0107 164.6 16.4907 165.112 17.152C165.645 17.8133 165.912 18.72 165.912 19.872C165.912 21.408 165.368 22.5493 164.28 23.296C163.192 24.0213 161.549 24.384 159.352 24.384ZM170.913 24.384C170.209 24.384 169.612 24.1493 169.121 23.68C168.63 23.1893 168.385 22.6027 168.385 21.92C168.385 21.2373 168.63 20.6507 169.121 20.16C169.612 19.648 170.209 19.392 170.913 19.392C171.574 19.392 172.15 19.648 172.641 20.16C173.132 20.6507 173.377 21.2373 173.377 21.92C173.377 22.6027 173.132 23.1893 172.641 23.68C172.172 24.1493 171.596 24.384 170.913 24.384ZM182.508 24.384C180.29 24.384 178.583 23.872 177.388 22.848C176.194 21.824 175.596 20.3627 175.596 18.464V14.496C175.596 12.5973 176.194 11.136 177.388 10.112C178.583 9.088 180.29 8.576 182.508 8.576C185.282 8.576 187.266 9.41867 188.46 11.104L185.612 13.408C185.1 12.8107 184.631 12.3947 184.204 12.16C183.778 11.904 183.212 11.776 182.508 11.776C181.634 11.776 180.951 12.0107 180.46 12.48C179.991 12.9493 179.756 13.6213 179.756 14.496V18.464C179.756 19.3387 179.991 20.0107 180.46 20.48C180.951 20.9493 181.634 21.184 182.508 21.184C183.212 21.184 183.778 21.0667 184.204 20.832C184.631 20.576 185.1 20.1493 185.612 19.552L188.46 21.856C187.863 22.7093 187.095 23.3493 186.156 23.776C185.218 24.1813 184.002 24.384 182.508 24.384ZM197.446 24.384C195.227 24.384 193.52 23.872 192.326 22.848C191.131 21.824 190.534 20.3627 190.534 18.464V14.496C190.534 12.5973 191.131 11.136 192.326 10.112C193.52 9.088 195.227 8.576 197.446 8.576C199.664 8.576 201.371 9.088 202.566 10.112C203.76 11.136 204.358 12.5973 204.358 14.496V18.464C204.358 20.3627 203.76 21.824 202.566 22.848C201.371 23.872 199.664 24.384 197.446 24.384ZM197.446 21.184C198.32 21.184 198.992 20.9493 199.462 20.48C199.952 20.0107 200.198 19.3387 200.198 18.464V14.496C200.198 13.6213 199.952 12.9493 199.462 12.48C198.992 12.0107 198.32 11.776 197.446 11.776C196.571 11.776 195.888 12.0107 195.398 12.48C194.928 12.9493 194.694 13.6213 194.694 14.496V18.464C194.694 19.3387 194.928 20.0107 195.398 20.48C195.888 20.9493 196.571 21.184 197.446 21.184ZM224.952 8.576C226.51 8.576 227.694 9.024 228.504 9.92C229.336 10.816 229.752 12.096 229.752 13.76V24H225.592V14.144C225.592 13.4187 225.422 12.8427 225.08 12.416C224.76 11.9893 224.312 11.776 223.736 11.776C222.478 11.776 221.55 12.576 220.952 14.176V24H216.792V14.144C216.792 13.4187 216.622 12.8427 216.28 12.416C215.96 11.9893 215.512 11.776 214.936 11.776C213.678 11.776 212.75 12.576 212.152 14.176V24H207.992V13.6C207.992 13.024 207.875 12.5547 207.64 12.192C207.427 11.8293 207.032 11.4347 206.456 11.008L209.24 8.576C210.52 9.19467 211.363 10.0053 211.768 11.008C212.771 9.38667 214.232 8.576 216.152 8.576C217.219 8.576 218.115 8.8 218.84 9.248C219.587 9.67467 220.131 10.304 220.472 11.136C221.432 9.42933 222.926 8.576 224.952 8.576Z" fill="#1A1A1A"/>
</svg>
